<svg width="150" height="150" viewBox="0 0 150 150" fill="none" xmlns="http://www.w3.org/2000/svg">
<circle cx="75" cy="75" r="75" fill="white"/>
<circle cx="26.3493" cy="103.95" r="1.38408" fill="#E76F00"/>
<circle cx="125.311" cy="103.95" r="1.38408" fill="#E76F00"/>
<path d="M24.4215 88.7094L18.4753 90.194L17.9724 88.1797C17.8396 87.648 17.8076 87.1652 17.8762 86.7316C17.9394 86.2992 18.0785 85.9192 18.2934 85.5917C18.5017 85.2601 18.7616 84.9869 19.0731 84.7722C19.3794 84.5587 19.7097 84.4078 20.0642 84.3193L20.2415 84.275C20.5853 84.1892 20.9451 84.1678 21.3211 84.2109C21.6971 84.254 22.0575 84.3722 22.4026 84.5657C22.7463 84.7538 23.053 85.0224 23.3228 85.3716C23.5872 85.7222 23.7858 86.1633 23.9186 86.6951L24.4215 88.7094ZM18.6774 87.9181L19.0033 89.2234L23.4992 88.1008L23.1733 86.7956C23.0553 86.3229 22.8553 85.9448 22.5735 85.6614C22.2902 85.3727 21.9573 85.1819 21.5746 85.0891C21.1852 84.9923 20.7784 84.9969 20.354 85.1029C19.9136 85.2128 19.5496 85.4007 19.2622 85.6665C18.9681 85.9282 18.7692 86.2518 18.6657 86.6371C18.5555 87.0184 18.5594 87.4454 18.6774 87.9181Z" fill="#0B0B17"/>
<path d="M22.525 79.3873L16.4812 79.8597L16.2081 76.3659L16.9367 76.3089L17.1463 78.9914L19.0257 78.8445L18.8296 76.3359L19.5582 76.2789L19.7543 78.7876L21.733 78.6329L21.5169 75.8676L22.2455 75.8107L22.525 79.3873Z" fill="#0B0B17"/>
<path d="M22.5529 69.2181C22.5113 69.7202 22.3931 70.1409 22.1983 70.4803C22.0035 70.8197 21.7522 71.0711 21.4442 71.2344C21.1362 71.3978 20.7974 71.4641 20.4277 71.4335L20.495 70.6224C20.677 70.6375 20.863 70.6057 21.0528 70.527C21.2431 70.4428 21.4084 70.2926 21.5485 70.0764C21.6891 69.8548 21.7756 69.5481 21.8081 69.1563C21.8383 68.7922 21.8106 68.4899 21.7249 68.2495C21.6338 68.0086 21.5073 67.8259 21.3454 67.7014C21.178 67.5764 20.9922 67.5054 20.7881 67.4885C20.5398 67.4679 20.3267 67.5586 20.1489 67.7605C19.9655 67.962 19.8374 68.268 19.7644 68.6786L19.6509 69.3442C19.5624 69.8757 19.3615 70.2896 19.048 70.5858C18.7346 70.882 18.3434 71.0107 17.8744 70.9718C17.5048 70.9412 17.1893 70.8262 16.9281 70.6268C16.6673 70.4218 16.4729 70.1529 16.345 69.8201C16.2115 69.4868 16.1624 69.1078 16.1976 68.6829C16.2323 68.2636 16.3402 67.9004 16.5212 67.5932C16.7022 67.286 16.9408 67.0557 17.2368 66.9025C17.5277 66.7433 17.8663 66.6797 18.2526 66.7117L18.1853 67.5228C17.9922 67.5068 17.8063 67.5386 17.6274 67.6182C17.4491 67.6923 17.2967 67.8213 17.1704 68.0053C17.044 68.1892 16.968 68.4357 16.9424 68.7447C16.9177 69.0426 16.9496 69.2953 17.0379 69.5026C17.1268 69.7044 17.2526 69.862 17.4154 69.9755C17.5731 70.083 17.7485 70.1448 17.9417 70.1608C18.1624 70.1791 18.3653 70.1098 18.5505 69.9529C18.7357 69.7961 18.8561 69.5505 18.9116 69.2162L19.0251 68.5507C19.1315 67.9373 19.343 67.4632 19.6596 67.1283C19.9712 66.7875 20.3697 66.6372 20.8553 66.6775C21.2249 66.7081 21.545 66.8346 21.8154 67.057C22.0859 67.2794 22.2862 67.5766 22.4165 67.9485C22.5468 68.3204 22.5923 68.7436 22.5529 69.2181Z" fill="#0B0B17"/>
<path d="M23.3821 62.3673L17.4985 60.9061L18.3432 57.5049L19.0524 57.6811L18.4039 60.2924L20.2335 60.7468L20.84 58.3047L21.5492 58.4808L20.9427 60.9229L22.869 61.4013L23.5375 58.7093L24.2468 58.8855L23.3821 62.3673Z" fill="#0B0B17"/>
<path d="M25.6771 54.4833L20.132 52.0333L20.6689 50.8179L26.7908 50.1544L26.8311 50.0633L21.9543 47.9086L22.2698 47.1946L27.815 49.6446L27.2713 50.8752L21.1495 51.5387L21.1092 51.6298L25.9859 53.7845L25.6771 54.4833Z" fill="#0B0B17"/>
<path d="M31.001 44.2436L24.8022 42.5881L25.2721 41.8933L30.7073 43.3733L30.8795 43.1188L27.3981 38.7495L27.854 38.0753L31.7826 43.0879L31.001 44.2436Z" fill="#0B0B17"/>
<path d="M37.4768 36.4456C37.0978 36.8339 36.7018 37.1011 36.2886 37.2471C35.8753 37.3931 35.4669 37.447 35.0632 37.4089C34.6594 37.3707 34.2843 37.2716 33.9379 37.1114C33.5952 36.9472 33.3051 36.7491 33.0673 36.5171L32.9366 36.3895C32.679 36.1382 32.4639 35.8394 32.2914 35.493C32.1188 35.1467 32.0164 34.776 31.9841 34.381C31.9479 33.9821 31.9998 33.5802 32.1397 33.1752C32.2835 32.7663 32.541 32.3716 32.9122 31.9912C33.2834 31.6109 33.6697 31.3458 34.0711 31.196C34.4764 31.0423 34.8789 30.9786 35.2785 31.0051C35.6742 31.0277 36.0473 31.121 36.3977 31.285C36.7482 31.4491 37.0522 31.6568 37.3097 31.9081L37.4405 32.0357C37.6782 32.2677 37.8814 32.555 38.05 32.8974C38.2225 33.2359 38.3328 33.6065 38.3807 34.0092C38.4287 34.4118 38.3848 34.8215 38.2489 35.2382C38.1131 35.6548 37.8557 36.0573 37.4768 36.4456ZM36.9419 35.9236C37.1893 35.67 37.3641 35.3958 37.4662 35.1009C37.5722 34.8021 37.6135 34.5021 37.5903 34.2009C37.5631 33.8958 37.4832 33.6052 37.3506 33.3288C37.2141 33.0486 37.0309 32.7963 36.8011 32.5721C36.4801 32.2589 36.1232 32.042 35.7302 31.9216C35.3371 31.7933 34.9414 31.7746 34.5432 31.8656C34.145 31.9566 33.7796 32.1725 33.4471 32.5132C33.1184 32.85 32.9115 33.2206 32.8264 33.6249C32.7452 34.0252 32.7716 34.4223 32.9056 34.816C33.0395 35.202 33.2669 35.5516 33.5879 35.8648C33.8177 36.089 34.0743 36.266 34.3578 36.3956C34.6373 36.5214 34.9299 36.5942 35.2355 36.6139C35.5372 36.6298 35.8341 36.5831 36.1264 36.4739C36.4226 36.3606 36.6944 36.1772 36.9419 35.9236Z" fill="#0B0B17"/>
<path d="M42.9241 31.3732L39.3479 26.4781L40.005 25.998L43.1502 30.303L45.2557 28.7647L45.6868 29.3548L42.9241 31.3732Z" fill="#0B0B17"/>
<path d="M50.4785 26.5186L45.8323 22.0939L46.5777 21.7094L50.638 25.6141L50.9111 25.4732L49.9507 19.9697L50.674 19.5966L51.7184 25.8791L50.4785 26.5186Z" fill="#0B0B17"/>
<path d="M57.297 23.463L55.416 17.6999L58.7476 16.6126L58.9743 17.3073L56.4164 18.1421L57.0013 19.9342L59.3934 19.1535L59.6202 19.8482L57.2281 20.6289L57.8439 22.5158L60.4807 21.6552L60.7074 22.3499L57.297 23.463Z" fill="#0B0B17"/>
<path d="M65.2141 21.2749L64.3054 15.2139L66.3586 14.9061C66.9006 14.8248 67.3842 14.8391 67.8094 14.9489C68.2337 15.0532 68.5986 15.228 68.9041 15.4733C69.2142 15.7124 69.4612 15.9972 69.6452 16.3279C69.8283 16.6532 69.9469 16.9965 70.0011 17.3578L70.0282 17.5385C70.0807 17.8889 70.0676 18.2492 69.9887 18.6193C69.9098 18.9894 69.7576 19.3369 69.532 19.6618C69.3119 19.9859 69.0151 20.2656 68.6417 20.5007C68.2674 20.7303 67.8093 20.8858 67.2672 20.967L65.2141 21.2749ZM66.5515 15.6329L65.2211 15.8324L65.9081 20.415L67.2386 20.2156C67.7204 20.1434 68.1158 19.9805 68.4249 19.727C68.7395 19.4727 68.9612 19.1596 69.0902 18.7876C69.2238 18.4092 69.2582 18.0038 69.1934 17.5713C69.1261 17.1223 68.9739 16.7421 68.7369 16.4305C68.5045 16.1127 68.2014 15.8838 67.8278 15.7439C67.4588 15.5977 67.0334 15.5607 66.5515 15.6329Z" fill="#0B0B17"/>
<path d="M77.3581 20.4856C76.8159 20.4662 76.3518 20.3527 75.9659 20.145C75.58 19.9373 75.2654 19.6712 75.0222 19.3468C74.7789 19.0223 74.6001 18.678 74.4857 18.3138C74.3768 17.9498 74.3283 17.6019 74.3402 17.2699L74.3467 17.0873C74.3596 16.7277 74.4361 16.3675 74.5765 16.0069C74.7168 15.6463 74.9223 15.3213 75.193 15.0318C75.4639 14.7368 75.7963 14.5049 76.1901 14.3361C76.5894 14.1676 77.0547 14.0928 77.5858 14.1118C78.117 14.1308 78.5729 14.2385 78.9537 14.4349C79.34 14.6315 79.6578 14.8866 79.9069 15.2002C80.1563 15.5083 80.3381 15.8472 80.4523 16.2169C80.5665 16.5866 80.6172 16.9513 80.6043 17.3109L80.5978 17.4935C80.5859 17.8254 80.51 18.169 80.3699 18.524C80.2353 18.8793 80.0351 19.2101 79.7693 19.5164C79.5036 19.8227 79.1708 20.0656 78.771 20.2452C78.3713 20.4248 77.9003 20.505 77.3581 20.4856ZM77.3848 19.7387C77.7389 19.7513 78.0594 19.6963 78.3463 19.5736C78.6388 19.4511 78.8886 19.2799 79.0959 19.0602C79.3034 18.835 79.4648 18.5803 79.5802 18.2964C79.6958 18.0069 79.7594 17.7017 79.7708 17.3808C79.7869 16.9327 79.7073 16.5226 79.5323 16.1508C79.3629 15.7735 79.1107 15.4681 78.7756 15.2346C78.4404 15.001 78.035 14.8757 77.5591 14.8587C77.0889 14.8419 76.6755 14.9379 76.319 15.1468C75.9681 15.3559 75.6919 15.6424 75.4905 16.0063C75.2949 16.365 75.1891 16.7684 75.1731 17.2165C75.1616 17.5374 75.2032 17.8464 75.2979 18.1434C75.3927 18.4349 75.5356 18.7003 75.7264 18.9398C75.9175 19.1738 76.1518 19.3622 76.4292 19.5051C76.7122 19.6481 77.0307 19.726 77.3848 19.7387Z" fill="#0B0B17"/>
<path d="M84.7625 21.0831L86.0587 15.127L87.9981 15.5491C88.4309 15.6433 88.7954 15.7906 89.0918 15.9911C89.3881 16.1915 89.5961 16.4464 89.7157 16.7558C89.8354 17.0651 89.8487 17.4335 89.7557 17.8608L89.7274 17.9907C89.6262 18.4559 89.4368 18.8056 89.1592 19.0398C88.8881 19.2698 88.5558 19.4043 88.162 19.4432L89.3878 22.0897L88.4222 21.8795L87.2898 19.3894C87.252 19.3812 87.2114 19.3723 87.1681 19.3629L86.0239 19.1139L85.5577 21.2562L84.7625 21.0831ZM87.9923 16.2787L86.7021 15.9979L86.1776 18.408L87.4678 18.6887C87.8357 18.7688 88.1525 18.7188 88.4183 18.5387C88.6842 18.3585 88.8548 18.0954 88.9301 17.7491C89.0066 17.3975 88.9614 17.0845 88.7945 16.8102C88.6275 16.5359 88.3601 16.3588 87.9923 16.2787Z" fill="#0B0B17"/>
<path d="M98.0286 25.3092L100.743 19.8887L103.773 21.4059L103.445 22.0593L101.144 20.9065L100.292 22.6069L102.471 23.6891L102.144 24.3425L99.9648 23.2604L98.7563 25.6736L98.0286 25.3092Z" fill="#0B0B17"/>
<path d="M104.66 28.9884L108.197 24.024L109.813 25.1757C110.174 25.4327 110.451 25.7117 110.645 26.0126C110.838 26.3136 110.929 26.6298 110.917 26.9613C110.905 27.2927 110.772 27.6366 110.519 27.9928L110.442 28.101C110.165 28.4888 109.853 28.7356 109.506 28.8416C109.166 28.9463 108.808 28.939 108.431 28.8197L108.515 31.7351L107.71 31.1616L107.65 28.4268C107.619 28.4043 107.585 28.3802 107.549 28.3545L106.595 27.675L105.323 29.4606L104.66 28.9884ZM109.521 25.8441L108.445 25.0779L107.014 27.0866L108.09 27.8528C108.396 28.0713 108.707 28.15 109.022 28.0892C109.338 28.0283 109.598 27.8536 109.804 27.565C110.013 27.2719 110.094 26.9664 110.049 26.6486C110.003 26.3307 109.827 26.0625 109.521 25.8441Z" fill="#0B0B17"/>
<path d="M113.44 36.4672C113.062 36.0789 112.804 35.6764 112.668 35.2597C112.532 34.8431 112.489 34.4334 112.537 34.0307C112.584 33.6281 112.693 33.2555 112.861 32.913C113.034 32.5745 113.239 32.2893 113.477 32.0573L113.608 31.9297C113.865 31.6784 114.169 31.4707 114.519 31.3066C114.87 31.1425 115.243 31.0492 115.639 31.0266C116.038 31.0002 116.439 31.0619 116.84 31.2116C117.246 31.3654 117.634 31.6324 118.005 32.0128C118.376 32.3932 118.632 32.7858 118.772 33.1908C118.916 33.5997 118.969 34.0036 118.933 34.4025C118.901 34.7976 118.798 35.1682 118.626 35.5146C118.453 35.8609 118.238 36.1597 117.981 36.4111L117.85 36.5387C117.612 36.7707 117.32 36.9668 116.974 37.127C116.631 37.2911 116.258 37.3923 115.854 37.4304C115.45 37.4685 115.042 37.4146 114.629 37.2686C114.215 37.1226 113.819 36.8555 113.44 36.4672ZM113.975 35.9452C114.223 36.1988 114.493 36.3802 114.785 36.4895C115.081 36.6027 115.38 36.6514 115.682 36.6355C115.987 36.6157 116.28 36.543 116.559 36.4172C116.843 36.2875 117.1 36.1106 117.329 35.8863C117.65 35.5731 117.876 35.2216 118.006 34.8317C118.144 34.4418 118.172 34.0468 118.091 33.6464C118.01 33.2461 117.803 32.8755 117.47 32.5348C117.141 32.198 116.776 31.9821 116.374 31.8872C115.976 31.7962 115.578 31.8128 115.181 31.9372C114.792 32.0616 114.437 32.2804 114.116 32.5936C113.886 32.8179 113.703 33.0701 113.567 33.3504C113.434 33.6267 113.354 33.9174 113.327 34.2224C113.304 34.5236 113.343 34.8216 113.445 35.1165C113.551 35.4154 113.728 35.6916 113.975 35.9452Z" fill="#0B0B17"/>
<path d="M118.399 41.9806L123.461 38.6447L124.192 39.7541L121.436 45.2605L121.491 45.3437L125.942 42.4099L126.372 43.0617L121.31 46.3976L120.57 45.2743L123.326 39.7679L123.271 39.6847L118.819 42.6186L118.399 41.9806Z" fill="#0B0B17"/>
<path d="M124.038 51.8038L128.927 49.6782L128.192 47.9875L128.862 47.6961L130.657 51.824L129.987 52.1153L129.252 50.4246L124.362 52.5502L124.038 51.8038Z" fill="#0B0B17"/>
<path d="M128.316 57.5937L128.974 57.4178L129.772 60.4022L129.114 60.5781L128.316 57.5937Z" fill="#0B0B17"/>
<path d="M128.138 65.8354L134.162 65.1551L134.555 68.6374L133.829 68.7195L133.527 66.0458L131.654 66.2574L131.936 68.7577L131.21 68.8397L130.928 66.3394L128.955 66.5621L129.267 69.3183L128.54 69.4003L128.138 65.8354Z" fill="#0B0B17"/>
<path d="M128.734 74.025L134.785 74.3895L134.705 75.7158L129.198 78.4706L129.192 78.5701L134.514 78.8907L134.467 79.6699L128.416 79.3054L128.496 77.9625L134.004 75.2076L134.01 75.1082L128.688 74.7876L128.734 74.025Z" fill="#0B0B17"/>
<path d="M127.625 84.1009L133.572 85.5856L133.069 87.5999C132.936 88.1316 132.737 88.5728 132.473 88.9233C132.214 89.2752 131.913 89.5452 131.569 89.7333C131.229 89.9281 130.871 90.047 130.495 90.0901C130.125 90.1345 129.762 90.1125 129.408 90.024L129.23 89.9797C128.887 89.8939 128.559 89.7436 128.247 89.5288C127.936 89.3141 127.673 89.0402 127.46 88.7073C127.245 88.3797 127.1 87.9984 127.026 87.5634C126.958 87.1297 126.99 86.647 127.123 86.1152L127.625 84.1009ZM132.323 87.4994L132.649 86.1941L128.153 85.0716L127.828 86.3768C127.71 86.8495 127.708 87.2772 127.824 87.6598C127.938 88.0479 128.142 88.3727 128.437 88.6345C128.735 88.903 129.096 89.0902 129.52 89.1961C129.961 89.3061 130.37 89.3113 130.749 89.2119C131.132 89.1191 131.459 88.927 131.732 88.6355C132.008 88.3508 132.205 87.9721 132.323 87.4994Z" fill="#0B0B17"/>
<path d="M111.657 114.612C112.062 114.243 112.474 114.01 112.894 113.912C113.314 113.821 113.724 113.852 114.124 114.004C114.525 114.164 114.896 114.432 115.239 114.808L117.7 117.51L117.098 118.058L114.571 115.283C114.227 114.906 113.841 114.7 113.412 114.665C112.982 114.629 112.565 114.796 112.16 115.165C111.759 115.53 111.554 115.926 111.546 116.353C111.542 116.784 111.713 117.19 112.06 117.57L114.588 120.345L113.986 120.893L111.525 118.192C111.182 117.816 110.95 117.421 110.828 117.007C110.71 116.598 110.715 116.189 110.844 115.78C110.976 115.374 111.247 114.985 111.657 114.612Z" fill="#0B0B17"/>
<path d="M106.147 119.188L109.561 124.198L108.888 124.656L105.474 119.646L106.147 119.188Z" fill="#0B0B17"/>
<path d="M96.8067 124.391L98.9862 130.119L97.0458 130.857C96.5335 131.052 96.058 131.141 95.6192 131.124C95.1824 131.113 94.7887 131.02 94.4379 130.845C94.084 130.678 93.7819 130.452 93.5317 130.168C93.2835 129.89 93.0944 129.579 92.9644 129.238L92.8995 129.067C92.7735 128.736 92.7096 128.381 92.7077 128.003C92.7059 127.624 92.7806 127.252 92.9318 126.887C93.0777 126.523 93.3081 126.187 93.6228 125.878C93.9395 125.573 94.354 125.324 94.8663 125.129L96.8067 124.391ZM96.7024 130.188L97.9598 129.71L96.3118 125.379L95.0545 125.857C94.5991 126.03 94.2475 126.274 93.9995 126.587C93.7463 126.903 93.5964 127.256 93.5497 127.647C93.4998 128.045 93.5526 128.448 93.7081 128.857C93.8696 129.282 94.0993 129.621 94.3973 129.875C94.6921 130.136 95.0369 130.295 95.4318 130.352C95.8235 130.416 96.247 130.361 96.7024 130.188Z" fill="#0B0B17"/>
<path d="M87.7739 127.387L88.9746 133.329L85.5395 134.023L85.3948 133.307L88.0321 132.774L87.6588 130.926L85.1924 131.425L85.0476 130.708L87.514 130.21L87.1209 128.264L84.4022 128.814L84.2574 128.098L87.7739 127.387Z" fill="#0B0B17"/>
<path d="M77.6734 128.601C78.1768 128.58 78.6089 128.646 78.9697 128.797C79.3306 128.948 79.6111 129.167 79.8112 129.452C80.0113 129.738 80.119 130.066 80.1342 130.436L79.321 130.47C79.3135 130.287 79.259 130.107 79.1575 129.928C79.0504 129.749 78.881 129.604 78.6492 129.492C78.4119 129.379 78.0968 129.331 77.7041 129.348C77.339 129.363 77.0424 129.427 76.8144 129.542C76.5866 129.662 76.421 129.81 76.3174 129.986C76.214 130.168 76.1665 130.361 76.1749 130.566C76.1852 130.815 76.3014 131.015 76.5238 131.166C76.7463 131.324 77.0658 131.413 77.4823 131.435L78.1568 131.465C78.6951 131.487 79.1307 131.636 79.4633 131.91C79.796 132.185 79.972 132.557 79.9913 133.027C80.0065 133.398 79.9313 133.725 79.7656 134.009C79.5944 134.293 79.3516 134.519 79.0371 134.687C78.7229 134.861 78.3528 134.956 77.9268 134.974C77.5064 134.991 77.1326 134.929 76.8054 134.787C76.4782 134.645 76.2203 134.437 76.0317 134.162C75.8378 133.893 75.7329 133.565 75.717 133.178L76.5302 133.144C76.5381 133.338 76.5927 133.519 76.6937 133.686C76.7893 133.854 76.9361 133.989 77.1343 134.092C77.3324 134.195 77.5864 134.24 77.8962 134.227C78.1949 134.215 78.4417 134.152 78.6365 134.039C78.8258 133.925 78.9667 133.781 79.0592 133.606C79.1464 133.436 79.1861 133.254 79.1781 133.06C79.169 132.839 79.0752 132.646 78.8967 132.482C78.7182 132.317 78.4596 132.228 78.1211 132.215L77.4466 132.184C76.8247 132.154 76.3282 132.003 75.9568 131.73C75.5801 131.463 75.3818 131.086 75.3618 130.599C75.3466 130.228 75.4326 129.895 75.6199 129.599C75.8073 129.304 76.0774 129.068 76.4304 128.893C76.7833 128.718 77.1977 128.62 77.6734 128.601Z" fill="#0B0B17"/>
<path d="M70.7207 128.599L70.1527 134.635L69.3424 134.559L69.9104 128.523L70.7207 128.599Z" fill="#0B0B17"/>
<path d="M62.5314 127.096C63.1399 127.242 63.6415 127.501 64.0361 127.874C64.4254 128.246 64.6912 128.694 64.8336 129.218C64.9761 129.741 64.9771 130.296 64.8369 130.883L64.7944 131.061C64.7044 131.438 64.5529 131.786 64.34 132.105C64.1205 132.428 63.8534 132.7 63.5388 132.921C63.2175 133.146 62.8572 133.296 62.4578 133.372C62.0571 133.452 61.6306 133.439 61.1783 133.331C60.6883 133.213 60.2747 133.015 59.9374 132.735C59.5988 132.461 59.3537 132.129 59.2019 131.74C59.0488 131.356 59.0056 130.941 59.0721 130.496L59.8798 130.689C59.839 131.027 59.8817 131.324 60.008 131.582C60.1329 131.846 60.3144 132.062 60.5525 132.233C60.784 132.408 61.0505 132.532 61.352 132.604C61.7613 132.701 62.1479 132.691 62.5119 132.573C62.8759 132.455 63.1886 132.243 63.45 131.935C63.71 131.633 63.8966 131.245 64.0099 130.771C64.1386 130.233 64.1518 129.761 64.0495 129.355C63.9419 128.948 63.743 128.613 63.4529 128.35C63.1561 128.091 62.7924 127.91 62.3616 127.807C62.0062 127.722 61.6696 127.702 61.3518 127.745C61.034 127.789 60.7523 127.884 60.5068 128.03L60.2674 129.032L62.1817 129.489L62.0234 130.151L58.8653 129.397L59.0236 128.734L59.5243 128.854L59.8216 127.61C60.1678 127.329 60.5714 127.14 61.0323 127.046C61.4933 126.951 61.993 126.968 62.5314 127.096Z" fill="#0B0B17"/>
<path d="M55.994 125.274L53.5422 130.819L52.327 130.281L51.6655 124.159L51.5744 124.119L49.4181 128.995L48.7042 128.679L51.156 123.135L52.3864 123.679L53.0479 129.801L53.1391 129.841L55.2953 124.965L55.994 125.274Z" fill="#0B0B17"/>
<path d="M46.9105 120.724L43.5558 125.774L40.6368 123.834L41.0412 123.226L43.2823 124.714L44.3255 123.144L42.2297 121.752L42.6341 121.143L44.7299 122.536L45.8283 120.882L43.518 119.348L43.9224 118.739L46.9105 120.724Z" fill="#0B0B17"/>
<path d="M40.2583 115.881L36.1268 120.363L34.6675 119.017C34.3419 118.717 34.102 118.406 33.9478 118.083C33.7936 117.76 33.7432 117.435 33.7964 117.107C33.8497 116.78 34.0246 116.456 34.3211 116.134L34.4111 116.036C34.7338 115.686 35.0742 115.48 35.4321 115.419C35.7822 115.358 36.137 115.41 36.4963 115.575L36.7779 112.672L37.5045 113.342L37.2214 116.063C37.2499 116.089 37.2804 116.118 37.313 116.148L38.1739 116.941L39.6599 115.329L40.2583 115.881ZM35.0417 118.391L36.0125 119.286L37.6842 117.472L36.7134 116.577C36.4366 116.322 36.138 116.205 35.8176 116.226C35.4971 116.247 35.2168 116.388 34.9767 116.648C34.7328 116.913 34.6134 117.206 34.6186 117.527C34.6239 117.848 34.7649 118.136 35.0417 118.391Z" fill="#0B0B17"/>
</svg>
